HIERARCHY
ROOT joint_Root
{
	OFFSET 0.0 0.0 0.0
	CHANNELS 6 Xposition Yposition Zposition Zrotation Xrotation Yrotation 
	JOINT Hips
	{
		OFFSET -0.726466 93.3139 -2.00062
		CHANNELS 6 Xposition Yposition Zposition Zrotation Xrotation Yrotation 
		JOINT Spine
		{
			OFFSET 15.7357 0.0 0.0
			CHANNELS 6 Xposition Yposition Zposition Zrotation Xrotation Yrotation 
			JOINT Chest
			{
				OFFSET 8.98455 -0.406207 0.0
				CHANNELS 6 Xposition Yposition Zposition Zrotation Xrotation Yrotation 
				JOINT Neck
				{
					OFFSET 16.3773 0.0 0.0
					CHANNELS 6 Xposition Yposition Zposition Zrotation Xrotation Yrotation 
					JOINT Head
					{
						OFFSET 6.45672 0.0 0.0
						CHANNELS 6 Xposition Yposition Zposition Zrotation Xrotation Yrotation 
						End Site
						{
							OFFSET 0.0 0.0 0.0
						}
					}
				}
				JOINT Shoulder_L
				{
					OFFSET 12.9942 -0.242716 4.98039
					CHANNELS 6 Xposition Yposition Zposition Zrotation Xrotation Yrotation 
					JOINT UpperArm_L
					{
						OFFSET 5.34809 0.0 0.0
						CHANNELS 6 Xposition Yposition Zposition Zrotation Xrotation Yrotation 
						JOINT LowerArm_L
						{
							OFFSET 24.3286 1.87007e-05 0.0
							CHANNELS 6 Xposition Yposition Zposition Zrotation Xrotation Yrotation 
							JOINT Hand_L
							{
								OFFSET 22.2916 0.0 0.0
								CHANNELS 6 Xposition Yposition Zposition Zrotation Xrotation Yrotation 
								End Site
								{
									OFFSET 0.0 0.0 0.0
								}
							}
						}
					}
				}
				JOINT Shoulder_R
				{
					OFFSET 12.9945 -0.242716 -4.98039
					CHANNELS 6 Xposition Yposition Zposition Zrotation Xrotation Yrotation 
					JOINT UpperArm_R
					{
						OFFSET -5.34813 0.0 0.0
						CHANNELS 6 Xposition Yposition Zposition Zrotation Xrotation Yrotation 
						JOINT LowerArm_R
						{
							OFFSET -24.3289 0.000322201 0.0
							CHANNELS 6 Xposition Yposition Zposition Zrotation Xrotation Yrotation 
							JOINT Hand_R
							{
								OFFSET -22.2915 -0.000108084 0.0
								CHANNELS 6 Xposition Yposition Zposition Zrotation Xrotation Yrotation 
								End Site
								{
									OFFSET 0.0 0.0 0.0
								}
							}
						}
					}
				}
			}
		}
		JOINT UpperLeg_L
		{
			OFFSET -2.19248 -6.46944 0.0
			CHANNELS 6 Xposition Yposition Zposition Zrotation Xrotation Yrotation 
			JOINT LowerLeg_L
			{
				OFFSET 39.0811 0.0 -1.23785e-05
				CHANNELS 6 Xposition Yposition Zposition Zrotation Xrotation Yrotation 
				JOINT Foot_L
				{
					OFFSET 40.9854 0.0 -1.26872e-05
					CHANNELS 6 Xposition Yposition Zposition Zrotation Xrotation Yrotation 
					JOINT Toes_L
					{
						OFFSET 11.7543 0.0 0.0
						CHANNELS 6 Xposition Yposition Zposition Zrotation Xrotation Yrotation 
						End Site
						{
							OFFSET 0.0 0.0 0.0
						}
					}
				}
			}
		}
		JOINT UpperLeg_R
		{
			OFFSET -2.19251 6.46944 0.0
			CHANNELS 6 Xposition Yposition Zposition Zrotation Xrotation Yrotation 
			JOINT LowerLeg_R
			{
				OFFSET -39.0811 -0.00228153 -0.0401928
				CHANNELS 6 Xposition Yposition Zposition Zrotation Xrotation Yrotation 
				JOINT Foot_R
				{
					OFFSET -40.9854 0.0 0.0
					CHANNELS 6 Xposition Yposition Zposition Zrotation Xrotation Yrotation 
					JOINT Toes_R
					{
						OFFSET -11.7543 0.0 0.0
						CHANNELS 6 Xposition Yposition Zposition Zrotation Xrotation Yrotation 
						End Site
						{
							OFFSET 0.0 0.0 0.0
						}
					}
				}
			}
		}
	}
}
MOTION
Frames:	4
Frame Time:	0.0333333
0.000000 0.000000 0.000000 0.000000 0.000000 -0.000000 -0.863588 92.066000 -2.340130 87.551000 -0.321198 4.136380 15.735700 0.000005 -0.000001 97.600400 86.529800 -99.208200 8.984550 -0.406207 -0.000000 -0.869949 1.038900 -3.206340 16.377300 -0.000001 -0.000001 0.705656 -2.394700 0.386925 6.456720 -0.000001 -0.000000 -3.276850 -2.495240 -0.406182 12.994200 -0.242716 4.980390 -88.344000 -4.810950 -70.979700 5.348090 -0.000007 -0.000001 29.196200 70.712200 -77.903700 24.328600 0.000019 0.000005 19.681800 0.851691 -87.620400 22.291600 -0.000001 0.000005 38.153900 5.641380 -27.999100 12.994500 -0.242716 -4.980390 90.745300 -1.761950 -67.066500 -5.348130 -0.000001 -0.000004 -49.100300 -52.942300 -92.729800 -24.328900 0.000322 -0.000009 2.789040 1.699520 -58.679500 -22.291500 -0.000108 -0.000004 20.800700 5.552550 -8.827070 -2.192480 -6.469440 -0.000000 -167.969000 -15.359100 -2.509580 39.081100 -0.000007 -0.000012 -0.183457 0.470584 21.298500 40.985400 -0.000006 -0.000013 -6.386320 4.317320 -62.650400 11.754300 -0.000000 0.000003 -0.000121 -0.001211 -16.623800 -2.192510 6.469440 -0.000001 174.598000 19.837200 179.037000 -39.081100 -0.002282 -0.040193 0.016584 -0.036217 20.112100 -40.985400 0.000008 0.000006 -1.510990 1.895900 -63.124500 -11.754300 -0.000006 -0.000006 -0.006690 -0.076979 -19.706600
0.000000 0.000000 0.000000 0.000000 0.000000 -0.000000 -0.872665 92.074300 -2.302420 87.515300 -0.351126 4.109070 15.735700 0.000005 -0.000001 97.523200 86.533500 -99.114900 8.984550 -0.406207 -0.000000 -0.876369 1.027540 -3.174100 16.377300 -0.000001 -0.000001 0.744684 -2.403840 0.441141 6.456720 -0.000001 -0.000000 -3.204630 -2.470120 -0.387578 12.994200 -0.242716 4.980390 -88.340700 -4.810940 -70.944400 5.348090 -0.000007 -0.000001 29.120700 70.715900 -77.844800 24.328600 0.000019 0.000005 19.694700 0.849747 -87.627500 22.291600 -0.000001 0.000005 38.178400 5.642030 -27.943100 12.994500 -0.242716 -4.980390 90.729200 -1.720500 -67.027300 -5.348130 -0.000001 -0.000004 -49.090800 -52.876300 -92.770600 -24.328900 0.000322 -0.000009 2.830520 1.723120 -58.704900 -22.291500 -0.000108 -0.000004 20.781300 5.551160 -8.760830 -2.192480 -6.469440 -0.000000 -167.930000 -15.385900 -2.483190 39.081100 -0.000007 -0.000012 -0.182980 0.470600 21.247500 40.985400 -0.000006 -0.000013 -6.394990 4.311210 -62.645900 11.754300 -0.000000 0.000003 -0.000144 -0.001407 -16.631100 -2.192510 6.469440 -0.000001 174.664000 19.850700 179.052000 -39.081100 -0.002282 -0.040193 0.019891 -0.045392 20.053900 -40.985400 0.000008 0.000006 -1.355130 1.867810 -63.122600 -11.754300 -0.000006 -0.000006 -0.006744 -0.077452 -19.725900
0.000000 0.000000 0.000000 0.000000 0.000000 -0.000000 -0.878078 92.068200 -2.270240 87.506600 -0.361846 4.048280 15.735700 0.000005 -0.000001 97.454300 86.544300 -99.037500 8.984550 -0.406207 -0.000000 -0.897086 1.016100 -3.157230 16.377300 -0.000001 -0.000001 0.797249 -2.392650 0.435302 6.456720 -0.000001 -0.000000 -3.188090 -2.487330 -0.320636 12.994200 -0.242716 4.980390 -88.342500 -4.800300 -70.924700 5.348090 -0.000007 -0.000001 28.993100 70.723300 -77.729200 24.328600 0.000019 0.000005 19.549700 0.852675 -87.600300 22.291600 -0.000001 0.000005 38.091600 5.641020 -28.029900 12.994500 -0.242716 -4.980390 90.721700 -1.701110 -67.007400 -5.348130 -0.000001 -0.000004 -49.160800 -52.856800 -92.816800 -24.328900 0.000322 -0.000009 2.730260 1.655170 -58.809400 -22.291500 -0.000108 -0.000004 20.858800 5.552700 -8.834620 -2.192480 -6.469440 -0.000000 -167.932000 -15.343900 -2.533340 39.081100 -0.000007 -0.000012 -0.183358 0.470882 21.275800 40.985400 -0.000006 -0.000013 -6.412570 4.273450 -62.689600 11.754300 -0.000000 0.000003 -0.000128 -0.001268 -16.625900 -2.192510 6.469440 -0.000001 174.664000 19.869700 179.030000 -39.081100 -0.002282 -0.040193 0.016174 -0.035247 20.033600 -40.985400 0.000008 0.000006 -1.468780 1.953170 -63.132000 -11.754300 -0.000006 -0.000006 -0.006855 -0.078411 -19.765100
0.000000 0.000000 0.000000 0.000000 0.000000 -0.000000 -0.885235 92.074800 -2.239280 87.507400 -0.383966 4.010570 15.735700 0.000005 -0.000001 97.627000 86.548100 -99.205000 8.984550 -0.406207 -0.000000 -0.907098 1.035480 -3.146320 16.377300 -0.000001 -0.000001 0.846257 -2.432620 0.487887 6.456720 -0.000001 -0.000000 -3.155890 -2.515870 -0.394056 12.994200 -0.242716 4.980390 -88.354600 -4.778000 -70.972600 5.348090 -0.000007 -0.000001 28.861100 70.784500 -77.587200 24.328600 0.000019 0.000005 19.437300 0.849699 -87.593700 22.291600 -0.000001 0.000005 38.064800 5.640430 -28.079700 12.994500 -0.242716 -4.980390 90.716000 -1.683340 -66.952500 -5.348130 -0.000001 -0.000004 -49.362200 -52.822200 -92.990100 -24.328900 0.000322 -0.000009 2.714250 1.640930 -58.879300 -22.291500 -0.000108 -0.000004 20.785500 5.553010 -8.850680 -2.192480 -6.469440 -0.000000 -167.933000 -15.401100 -2.509870 39.081100 -0.000007 -0.000012 -0.181411 0.467432 21.211600 40.985400 -0.000006 -0.000013 -6.421610 4.257670 -62.675300 11.754300 -0.000000 0.000003 -0.000131 -0.001292 -16.626800 -2.192510 6.469440 -0.000001 174.678000 19.859400 179.041000 -39.081100 -0.002282 -0.040193 0.016692 -0.036782 19.976300 -40.985400 0.000008 0.000006 -1.430020 1.954670 -63.128400 -11.754300 -0.000006 -0.000006 -0.006702 -0.077085 -19.710900
